<svg width="8" height="10" viewBox="0 0 8 10" fill="none" xmlns="http://www.w3.org/2000/svg">
<path d="M7.4356 5.62256C7.4039 5.6648 7.25596 5.84436 7.13973 5.96054L7.07632 6.02391C6.18869 6.98505 3.98017 8.43204 2.86006 8.89677C2.86006 8.90733 2.19434 9.18194 1.87733 9.1925H1.83506C1.34897 9.1925 0.894591 8.91789 0.662116 8.47429C0.535311 8.23136 0.419073 7.52371 0.408506 7.51315C0.313402 6.87943 0.25 5.90878 0.25 4.84097C0.25 3.7214 0.313402 2.70745 0.42964 2.0843C0.42964 2.07373 0.545878 1.50339 0.619847 1.31327C0.736085 1.03866 0.947426 0.806297 1.2116 0.65843C1.42294 0.55281 1.64485 0.5 1.87733 0.5C2.12037 0.510562 2.57475 0.670048 2.75439 0.742925C3.93791 1.20765 6.19926 2.72858 7.06576 3.65803C7.2137 3.8059 7.3722 3.98545 7.41447 4.0277C7.59411 4.26006 7.68921 4.54523 7.68921 4.85259C7.68921 5.12614 7.60468 5.40075 7.4356 5.62256Z" fill="#6E43E5"/>
</svg>
