<svg width="144" height="145" viewBox="0 0 144 145" fill="none" xmlns="http://www.w3.org/2000/svg">
<path d="M73.2 136.119C110.313 136.119 140.4 106.032 140.4 68.9187C140.4 31.8052 110.313 1.71875 73.2 1.71875C36.0865 1.71875 6 31.8052 6 68.9187C6 106.032 36.0865 136.119 73.2 136.119Z" fill="#6E43E5"/>
<path d="M74.5708 120.519C83.1173 120.519 91.1769 118.429 98.2685 114.732M108.857 30.5433C100.933 23.4348 90.7983 18.7524 79.6131 17.6615M25.7243 85.1406C24.0492 80.0538 23.1426 74.617 23.1426 68.9677C23.1426 64.9705 23.5965 61.0794 24.4554 57.3436" stroke="#191919" stroke-width="2"/>
<path d="M103.715 33.5771L113.445 39.1951V27.959L103.715 33.5771Z" fill="white" stroke="#191919" stroke-width="2"/>
<path d="M64.2852 120.149L74.0159 114.531V125.766L64.2852 120.149Z" fill="white" stroke="#191919" stroke-width="2"/>
<path d="M26.7674 47.6265L29.6755 58.4797L18.8223 55.5716L26.7674 47.6265Z" fill="white" stroke="#191919" stroke-width="2"/>
<path d="M127.713 81.9472C130.08 81.9472 131.999 80.0284 131.999 77.6614C131.999 75.2945 130.08 73.3757 127.713 73.3757C125.347 73.3757 123.428 75.2945 123.428 77.6614C123.428 80.0284 125.347 81.9472 127.713 81.9472Z" fill="white" stroke="#191919" stroke-width="2"/>
<path d="M44.5709 110.233C46.9378 110.233 48.8566 108.314 48.8566 105.947C48.8566 103.58 46.9378 101.661 44.5709 101.661C42.2039 101.661 40.2852 103.58 40.2852 105.947C40.2852 108.314 42.2039 110.233 44.5709 110.233Z" fill="white" stroke="#191919" stroke-width="2"/>
<path d="M48.856 28.8041C51.223 28.8041 53.1417 26.8853 53.1417 24.5184C53.1417 22.1514 51.223 20.2327 48.856 20.2327C46.4891 20.2327 44.5703 22.1514 44.5703 24.5184C44.5703 26.8853 46.4891 28.8041 48.856 28.8041Z" fill="white" stroke="#191919" stroke-width="2"/>
</svg>
