<svg width="56" height="57" viewBox="0 0 56 57" fill="none" xmlns="http://www.w3.org/2000/svg">
<path d="M7.58203 17.0183C7.58203 13.7046 10.2683 11.0183 13.582 11.0183H38.332C41.6457 11.0183 44.332 13.7046 44.332 17.0183V22.685H7.58203V17.0183Z" fill="#6E43E5"/>
<path fill-rule="evenodd" clip-rule="evenodd" d="M11.1764 12.0511C9.64283 12.0511 8.39961 13.2943 8.39961 14.8279V44.0655C8.39961 45.5991 9.64283 46.8423 11.1764 46.8423H26.9686C27.7418 46.8423 28.3686 47.4691 28.3686 48.2423C28.3686 49.0155 27.7418 49.6423 26.9686 49.6423H11.1764C8.09643 49.6423 5.59961 47.1455 5.59961 44.0655V14.8279C5.59961 11.7479 8.09643 9.2511 11.1764 9.2511H40.414C43.494 9.2511 45.9908 11.7479 45.9908 14.8279V28.5313C45.9908 29.3045 45.364 29.9313 44.5908 29.9313C43.8176 29.9313 43.1908 29.3045 43.1908 28.5313V14.8279C43.1908 13.2943 41.9476 12.0511 40.414 12.0511H11.1764Z" fill="black"/>
<path fill-rule="evenodd" clip-rule="evenodd" d="M34.148 5.07416C34.9212 5.07416 35.548 5.70096 35.548 6.47416V14.8278C35.548 15.601 34.9212 16.2278 34.148 16.2278C33.3748 16.2278 32.748 15.601 32.748 14.8278V6.47416C32.748 5.70096 33.3748 5.07416 34.148 5.07416Z" fill="black"/>
<path fill-rule="evenodd" clip-rule="evenodd" d="M17.441 5.07416C18.2142 5.07416 18.841 5.70096 18.841 6.47416V14.8278C18.841 15.601 18.2142 16.2278 17.441 16.2278C16.6678 16.2278 16.041 15.601 16.041 14.8278V6.47416C16.041 5.70096 16.6678 5.07416 17.441 5.07416Z" fill="black"/>
<path fill-rule="evenodd" clip-rule="evenodd" d="M5.59961 23.1812C5.59961 22.4081 6.22641 21.7812 6.99961 21.7812H44.5908C45.364 21.7812 45.9908 22.4081 45.9908 23.1812C45.9908 23.9544 45.364 24.5812 44.5908 24.5812H6.99961C6.22641 24.5812 5.59961 23.9544 5.59961 23.1812Z" fill="black"/>
<path fill-rule="evenodd" clip-rule="evenodd" d="M41.9373 34.2016C38.5432 33.6341 35.3034 35.5298 34.0511 38.5866C33.7873 39.2306 33.0514 39.5387 32.4075 39.275C31.7636 39.0112 31.4554 38.2753 31.7192 37.6313C33.4078 33.5093 37.7727 30.9503 42.3529 31.7161C46.1867 32.3571 49.1193 35.1527 50.1235 38.6505C50.3155 39.3193 49.9289 40.0172 49.2601 40.2092C48.5912 40.4012 47.8933 40.0147 47.7013 39.3458C46.955 36.7462 44.7774 34.6765 41.9373 34.2016ZM49.0811 43.3989C49.725 43.6627 50.0332 44.3985 49.7694 45.0425C48.0808 49.1645 43.7158 51.7235 39.1357 50.9577C35.3094 50.3179 32.3808 47.5321 31.371 44.044C31.1776 43.3755 31.5626 42.6768 32.231 42.4833C32.8994 42.2898 33.5982 42.6748 33.7917 43.3433C34.5421 45.9357 36.7167 47.9983 39.5512 48.4722C42.9454 49.0397 46.1852 47.144 47.4375 44.0872C47.7013 43.4432 48.4371 43.1351 49.0811 43.3989Z" fill="black"/>
<path fill-rule="evenodd" clip-rule="evenodd" d="M30.362 46.9249C29.742 46.6089 29.4955 45.8501 29.8115 45.2301L31.2673 42.3736C31.5833 41.7536 32.3421 41.5072 32.9621 41.8231L35.8186 43.279C36.4386 43.595 36.6851 44.3537 36.3691 44.9737C36.0531 45.5937 35.2943 45.8402 34.6743 45.5242L32.9404 44.6405L32.0567 46.3744C31.7408 46.9944 30.982 47.2409 30.362 46.9249Z" fill="black"/>
<path fill-rule="evenodd" clip-rule="evenodd" d="M51.6168 37.7699C52.1679 38.1948 52.2701 38.986 51.8451 39.5371L49.8921 42.0697C49.4671 42.6207 48.6759 42.723 48.1248 42.298L45.5922 40.3449C45.0412 39.9199 44.939 39.1287 45.3639 38.5777C45.7889 38.0266 46.5801 37.9244 47.1311 38.3494L48.666 39.533L49.8496 37.9982C50.2746 37.4471 51.0658 37.3449 51.6168 37.7699Z" fill="black"/>
<path d="M26.8331 40.7644C26.4878 40.9951 26.0817 41.1183 25.6664 41.1183C25.1094 41.1183 24.5753 40.8971 24.1815 40.5032C23.7877 40.1094 23.5664 39.5753 23.5664 39.0183C23.5664 38.603 23.6896 38.197 23.9203 37.8516C24.1511 37.5063 24.479 37.2371 24.8628 37.0782C25.2465 36.9192 25.6687 36.8776 26.0761 36.9587C26.4835 37.0397 26.8576 37.2397 27.1513 37.5334C27.445 37.8271 27.645 38.2013 27.7261 38.6086C27.8071 39.016 27.7655 39.4382 27.6066 39.8219C27.4476 40.2057 27.1784 40.5336 26.8331 40.7644Z" fill="black"/>
<path d="M26.8331 32.3644C26.4878 32.5951 26.0817 32.7183 25.6664 32.7183C25.1094 32.7183 24.5753 32.4971 24.1815 32.1032C23.7877 31.7094 23.5664 31.1753 23.5664 30.6183C23.5664 30.203 23.6896 29.797 23.9203 29.4516C24.1511 29.1063 24.479 28.8371 24.8628 28.6782C25.2465 28.5192 25.6687 28.4776 26.0761 28.5587C26.4835 28.6397 26.8576 28.8397 27.1513 29.1334C27.445 29.4271 27.645 29.8013 27.7261 30.2086C27.8071 30.616 27.7655 31.0382 27.6066 31.4219C27.4476 31.8057 27.1784 32.1336 26.8331 32.3644Z" fill="black"/>
<path d="M16.3331 32.3644C15.9878 32.5951 15.5817 32.7183 15.1664 32.7183C14.6095 32.7183 14.0753 32.4971 13.6815 32.1032C13.2877 31.7094 13.0664 31.1753 13.0664 30.6183C13.0664 30.203 13.1896 29.797 13.4203 29.4516C13.6511 29.1063 13.979 28.8371 14.3628 28.6782C14.7465 28.5192 15.1687 28.4776 15.5761 28.5587C15.9835 28.6397 16.3576 28.8397 16.6513 29.1334C16.945 29.4271 17.145 29.8013 17.2261 30.2086C17.3071 30.616 17.2655 31.0382 17.1066 31.4219C16.9476 31.8057 16.6784 32.1336 16.3331 32.3644Z" fill="black"/>
<path d="M16.3331 40.7644C15.9878 40.9951 15.5817 41.1183 15.1664 41.1183C14.6095 41.1183 14.0753 40.8971 13.6815 40.5032C13.2877 40.1094 13.0664 39.5753 13.0664 39.0183C13.0664 38.603 13.1896 38.197 13.4203 37.8516C13.6511 37.5063 13.979 37.2371 14.3628 37.0782C14.7465 36.9192 15.1687 36.8776 15.5761 36.9587C15.9835 37.0397 16.3576 37.2397 16.6513 37.5334C16.945 37.8271 17.145 38.2013 17.2261 38.6086C17.3071 39.016 17.2655 39.4382 17.1066 39.8219C16.9476 40.2057 16.6784 40.5336 16.3331 40.7644Z" fill="black"/>
</svg>
