<svg width="56" height="57" viewBox="0 0 56 57" fill="none" xmlns="http://www.w3.org/2000/svg">
<path fill-rule="evenodd" clip-rule="evenodd" d="M11.8717 7.72438C12.9 6.69605 14.2947 6.11835 15.749 6.11835H31.1394C32.1144 6.11835 33.0495 6.50567 33.739 7.19513L44.6555 18.1117C45.345 18.8011 45.7323 19.7362 45.7323 20.7112V44.8517C45.7323 48.2022 43.0162 50.9183 39.6656 50.9183H15.749C14.2947 50.9183 12.9 50.3406 11.8717 49.3123C10.8433 48.284 10.2656 46.8893 10.2656 45.435V11.6017C10.2656 10.1474 10.8433 8.7527 11.8717 7.72438ZM15.749 8.91835C15.0373 8.91835 14.3548 9.20105 13.8516 9.70428C13.3483 10.2075 13.0656 10.89 13.0656 11.6017V45.435C13.0656 46.1467 13.3483 46.8292 13.8516 47.3324C14.3548 47.8356 15.0373 48.1183 15.749 48.1183H39.6656C41.4698 48.1183 42.9323 46.6558 42.9323 44.8517V20.7112C42.9323 20.4788 42.84 20.2559 42.6756 20.0916L31.7591 9.17502C31.5947 9.01068 31.3718 8.91835 31.1394 8.91835H15.749Z" fill="black"/>
<path d="M32.3743 20.06L31.791 8.685L43.7493 19.7683L32.3743 20.06Z" fill="#6E43E5"/>
<path fill-rule="evenodd" clip-rule="evenodd" d="M32.0836 6.28241C32.8568 6.28241 33.4836 6.90921 33.4836 7.68241V18.3683H43.9145C44.6877 18.3683 45.3145 18.9951 45.3145 19.7683C45.3145 20.5415 44.6877 21.1683 43.9145 21.1683H32.0836C31.3104 21.1683 30.6836 20.5415 30.6836 19.7683V7.68241C30.6836 6.90921 31.3104 6.28241 32.0836 6.28241Z" fill="black"/>
<path fill-rule="evenodd" clip-rule="evenodd" d="M18.4336 29.9767C18.4336 29.2035 19.0604 28.5767 19.8336 28.5767H35.7681C36.5413 28.5767 37.1681 29.2035 37.1681 29.9767C37.1681 30.7499 36.5413 31.3767 35.7681 31.3767H19.8336C19.0604 31.3767 18.4336 30.7499 18.4336 29.9767Z" fill="black"/>
<path fill-rule="evenodd" clip-rule="evenodd" d="M18.4336 38.1433C18.4336 37.3701 19.0604 36.7433 19.8336 36.7433H31.2154C31.9886 36.7433 32.6154 37.3701 32.6154 38.1433C32.6154 38.9165 31.9886 39.5433 31.2154 39.5433H19.8336C19.0604 39.5433 18.4336 38.9165 18.4336 38.1433Z" fill="black"/>
<path fill-rule="evenodd" clip-rule="evenodd" d="M18.4336 21.81C18.4336 21.0368 19.0604 20.41 19.8336 20.41H24.3863C25.1595 20.41 25.7863 21.0368 25.7863 21.81C25.7863 22.5832 25.1595 23.21 24.3863 23.21H19.8336C19.0604 23.21 18.4336 22.5832 18.4336 21.81Z" fill="black"/>
</svg>
