<svg width="56" height="57" viewBox="0 0 56 57" fill="none" xmlns="http://www.w3.org/2000/svg">
<path d="M44.916 18.8933L27.9993 10.1433L10.791 19.185L27.9993 28.2266L44.916 18.8933Z" fill="#6E43E5"/>
<path fill-rule="evenodd" clip-rule="evenodd" d="M27.3742 8.5994C27.7683 8.40233 28.2322 8.40233 28.6264 8.5994L47.293 17.9327C47.7673 18.1699 48.0669 18.6546 48.0669 19.1849C48.0669 19.7152 47.7673 20.2 47.293 20.4371L28.6264 29.7705C28.2322 29.9675 27.7683 29.9675 27.3742 29.7705L8.7075 20.4371C8.2332 20.2 7.9336 19.7152 7.9336 19.1849C7.9336 18.6546 8.2332 18.1699 8.7075 17.9327L27.3742 8.5994ZM12.4641 19.1849L28.0003 26.953L43.5364 19.1849L28.0003 11.4168L12.4641 19.1849Z" fill="black"/>
<path fill-rule="evenodd" clip-rule="evenodd" d="M8.07975 37.2255C8.42553 36.5339 9.26648 36.2536 9.95805 36.5994L27.9986 45.6197L46.0392 36.5994C46.7308 36.2536 47.5717 36.5339 47.9175 37.2255C48.2633 37.9171 47.983 38.758 47.2914 39.1038L28.6247 48.4371C28.2306 48.6342 27.7667 48.6342 27.3725 48.4371L8.70585 39.1038C8.01428 38.758 7.73396 37.9171 8.07975 37.2255Z" fill="black"/>
<path fill-rule="evenodd" clip-rule="evenodd" d="M8.07975 27.8922C8.42553 27.2006 9.26648 26.9203 9.95805 27.2661L27.9986 36.2864L46.0392 27.2661C46.7307 26.9203 47.5717 27.2006 47.9175 27.8922C48.2633 28.5838 47.9829 29.4247 47.2914 29.7705L28.6247 39.1038C28.2306 39.3009 27.7667 39.3009 27.3725 39.1038L8.70585 29.7705C8.01428 29.4247 7.73396 28.5838 8.07975 27.8922Z" fill="black"/>
</svg>
