<svg width="144" height="145" viewBox="0 0 144 145" fill="none" xmlns="http://www.w3.org/2000/svg">
<path d="M73.2 136.118C110.313 136.118 140.4 106.032 140.4 68.918C140.4 31.8045 110.313 1.71802 73.2 1.71802C36.0865 1.71802 6 31.8045 6 68.918C6 106.032 36.0865 136.118 73.2 136.118Z" fill="#6E43E5"/>
<path fill-rule="evenodd" clip-rule="evenodd" d="M122.39 83.4089L117.182 78.2709L109.033 86.5323L100.772 78.383L95.6348 83.5907L103.895 91.7401L95.7454 100.002L100.953 105.139L109.103 96.878L117.365 105.028L122.503 99.8197L114.24 91.6696L122.39 83.4089Z" fill="white"/>
<path d="M117.182 78.2709L117.785 77.824L117.175 77.2213L116.571 77.8329L117.182 78.2709ZM122.389 83.4089L122.999 83.8475L123.439 83.4014L122.994 82.962L122.389 83.4089ZM109.032 86.5323L108.428 86.9792L109.039 87.5819L109.642 86.9703L109.032 86.5323ZM100.772 78.383L101.376 77.9354L100.765 77.3334L100.162 77.9443L100.772 78.383ZM95.6343 83.5907L95.0241 83.1528L94.584 83.5981L95.0301 84.0383L95.6343 83.5907ZM103.894 91.7401L104.504 92.1788L104.945 91.7327L104.498 91.2932L103.894 91.7401ZM95.7449 100.002L95.1355 99.5628L94.6953 100.009L95.1407 100.448L95.7449 100.002ZM100.953 105.139L100.349 105.586L100.96 106.189L101.563 105.577L100.953 105.139ZM109.103 96.878L109.707 96.4305L109.096 95.8277L108.493 96.4394L109.103 96.878ZM117.364 105.028L116.76 105.475L117.371 106.078L117.974 105.466L117.364 105.028ZM122.502 99.8197L123.112 100.258L123.552 99.8122L123.106 99.3728L122.502 99.8197ZM114.24 91.6696L113.631 91.2309L113.19 91.677L113.637 92.1171L114.24 91.6696ZM116.577 78.7185L121.785 83.8557L122.994 82.962L117.785 77.824L116.577 78.7185ZM109.642 86.9703L117.791 78.7096L116.571 77.8329L108.423 86.0936L109.642 86.9703ZM100.167 78.8298L108.428 86.9792L109.636 86.0847L101.376 77.9354L100.167 78.8298ZM96.2437 84.0294L101.382 78.8216L100.162 77.9443L95.0241 83.1528L96.2437 84.0294ZM104.498 91.2932L96.2378 83.1439L95.0301 84.0383L103.291 92.1869L104.498 91.2932ZM96.3543 100.44L104.504 92.1788L103.285 91.3014L95.1355 99.5628L96.3543 100.44ZM101.557 104.692L96.3491 99.5547L95.1407 100.448L100.349 105.586L101.557 104.692ZM108.493 96.4394L100.343 104.701L101.563 105.577L109.712 97.316L108.493 96.4394ZM117.968 104.581L109.707 96.4305L108.499 97.3249L116.76 105.475L117.968 104.581ZM121.892 99.381L116.755 104.589L117.974 105.466L123.112 100.258L121.892 99.381ZM113.637 92.1171L121.898 100.267L123.106 99.3728L114.844 91.2227L113.637 92.1171ZM121.78 82.9702L113.631 91.2309L114.85 92.1082L122.999 83.8475L121.78 82.9702Z" fill="#191919"/>
<path d="M48.9033 36.0536L43.9677 31.1847L40.0297 35.1767L36.1992 31.3979L31.6488 36.0107L35.4793 39.7894L31.541 43.7817L36.4767 48.6506L40.4149 44.6584L44.2494 48.4411L48.7998 43.8283L44.9653 40.0457L48.9033 36.0536Z" fill="white" stroke="#191919" stroke-width="2"/>
<path d="M105.601 31.718C108.252 31.718 110.401 29.569 110.401 26.918C110.401 24.2671 108.252 22.118 105.601 22.118C102.95 22.118 100.801 24.2671 100.801 26.918C100.801 29.569 102.95 31.718 105.601 31.718Z" fill="white" stroke="#191919" stroke-width="2"/>
<path d="M48.0004 110.918C49.9886 110.918 51.6004 109.306 51.6004 107.318C51.6004 105.33 49.9886 103.718 48.0004 103.718C46.0122 103.718 44.4004 105.33 44.4004 107.318C44.4004 109.306 46.0122 110.918 48.0004 110.918Z" fill="white" stroke="#191919" stroke-width="2"/>
<path d="M18.8695 78.5186L6 89.3174L16.7988 102.187L29.6683 91.3881L18.8695 78.5186Z" fill="white" stroke="#191919" stroke-width="2"/>
<path d="M72.5141 123.763L59.6445 134.562L60.4159 135.482L73.2854 124.683L72.5141 123.763Z" stroke="#191919" stroke-width="1.61667"/>
<path d="M77.3148 2.56349L64.4453 13.3623L65.2167 14.2816L78.0862 3.48275L77.3148 2.56349Z" stroke="#191919" stroke-width="1.61667"/>
<path d="M51.2285 104.325L72.0289 86.8722L57.6 74.3183L84.0002 49.118" stroke="#191919" stroke-width="2"/>
<path d="M92.99 37.8463L89.5615 57.2917L74.4355 44.5997L92.99 37.8463Z" fill="white" stroke="#191919" stroke-width="2"/>
</svg>
