<svg width="34" height="42" viewBox="0 0 34 42" fill="none" xmlns="http://www.w3.org/2000/svg">
<path d="M26.2589 0.428589H0.885742V41.5714H33.1152V7.28487L26.2589 0.428589Z" fill="#E8E8E8"/>
<path d="M27.6422 20.7748C27.1479 19.8937 25.4397 19.6169 24.656 19.4923C24.0383 19.3941 23.4077 19.3648 22.7829 19.3653C22.2924 19.3621 21.809 19.3862 21.3319 19.4133C21.156 19.4252 20.9819 19.4404 20.8079 19.4554C20.6296 19.2709 20.4573 19.0802 20.2905 18.8852C19.2293 17.629 18.3725 16.2044 17.6743 14.7241C17.8597 14.0088 18.008 13.2623 18.0976 12.487C18.2611 11.0721 18.3173 9.45956 17.7871 8.11056C17.604 7.64497 17.1159 7.07815 16.5528 7.3604C15.9053 7.685 15.7232 8.60464 15.6704 9.25655C15.628 9.78348 15.6577 10.3118 15.7461 10.8299C15.8363 11.3515 15.9813 11.8468 16.1393 12.3414C16.2866 12.7949 16.4491 13.2449 16.6262 13.6907C16.5138 14.0416 16.3945 14.3864 16.2693 14.7224C15.9772 15.4882 15.6615 16.2157 15.3578 16.9155C15.1976 17.2625 15.0409 17.6021 14.8876 17.9342C14.4023 19.0001 13.8755 20.0465 13.2843 21.058C11.9051 21.5445 10.6675 22.1085 9.63975 22.7713C9.08839 23.1275 8.60136 23.5144 8.19576 23.9387C7.81281 24.3393 7.42362 24.8592 7.38956 25.4347C7.37042 25.7595 7.49907 26.0748 7.76518 26.2675C8.13116 26.5409 8.61616 26.5227 9.04076 26.4337C10.4317 26.1419 11.4998 24.9463 12.4094 23.9386C13.0359 23.2445 13.749 22.3631 14.495 21.2971C14.4966 21.2947 14.4982 21.2923 14.5 21.2898C15.7794 20.8932 17.1718 20.5583 18.6496 20.3121C19.3247 20.2001 20.0177 20.1085 20.7246 20.0442C21.2217 20.5098 21.7588 20.9337 22.3447 21.2878C22.8011 21.5685 23.2865 21.8056 23.7946 21.9824C24.3083 22.1503 24.8252 22.2874 25.3589 22.3741C25.6284 22.4126 25.904 22.4301 26.1856 22.4195C26.814 22.3958 27.716 22.1548 27.7752 21.3923C27.7934 21.1589 27.7431 20.9542 27.6422 20.7748ZM12.5972 22.1739C12.3029 22.6299 12.019 23.04 11.7515 23.4008C11.0965 24.2921 10.3484 25.3507 9.26521 25.7465C9.05949 25.8217 8.78863 25.8993 8.50312 25.8825C8.24881 25.8675 7.99804 25.7553 8.00957 25.4666C8.01527 25.3154 8.08923 25.1226 8.20268 24.9331C8.32684 24.7254 8.48059 24.5348 8.6471 24.3596C9.00385 23.9848 9.45492 23.6216 9.97384 23.2852C10.7697 22.7688 11.7199 22.304 12.7791 21.8893C12.7181 21.9857 12.6573 22.0815 12.5972 22.1739ZM16.2913 10.7398C16.2096 10.2629 16.1972 9.77941 16.2474 9.31449C16.2724 9.08204 16.3198 8.85515 16.3883 8.6425C16.4464 8.46202 16.5718 8.02154 16.7718 7.96495C17.1015 7.87159 17.2029 8.57954 17.2402 8.77983C17.4527 9.91918 17.2655 11.1862 17.0105 12.3038C16.9699 12.4816 16.9247 12.6565 16.8784 12.8308C16.7995 12.6135 16.7241 12.3956 16.6548 12.1766C16.5055 11.6982 16.369 11.2143 16.2913 10.7398ZM18.5552 19.734C17.3162 19.9348 16.1376 20.198 15.0298 20.5086C15.1632 20.4713 15.7727 19.316 15.9087 19.0763C16.5494 17.9479 17.0734 16.7637 17.45 15.5213C18.1149 16.8364 18.922 18.0945 19.9134 19.2143C20.0047 19.3159 20.0975 19.4163 20.192 19.5155C19.6364 19.5754 19.0897 19.6482 18.5552 19.734ZM26.9339 21.3209C26.8885 21.5658 26.3654 21.7059 26.1213 21.7444C25.3999 21.8579 24.6367 21.7671 23.9463 21.5352C23.4725 21.3761 23.0156 21.1595 22.5815 20.899C22.15 20.6383 21.7463 20.3316 21.3689 19.9935C21.8342 19.9655 22.3052 19.9472 22.7786 19.9561C23.2519 19.9609 23.7289 19.9848 24.2 20.0463C25.0836 20.1448 26.0737 20.4481 26.7691 21.0214C26.906 21.1344 26.9497 21.2343 26.9339 21.3209Z" fill="#FB3449"/>
<path d="M27.32 3.8568H0.885742V0.428589H26.2589L27.32 3.8568Z" fill="#FB3449"/>
<path d="M13.642 33.1531C13.642 33.8806 13.4276 34.4424 12.9985 34.8386C12.5694 35.235 11.9601 35.4331 11.1703 35.4331H10.6759V37.5931H8.91699V31.0823H11.1704C11.9928 31.0823 12.6104 31.2619 13.023 31.6211C13.4357 31.9803 13.642 32.491 13.642 33.1531ZM10.6761 33.9992H10.9967C11.261 33.9992 11.471 33.9251 11.6269 33.7765C11.7829 33.628 11.8607 33.4231 11.8607 33.1619C11.8607 32.7225 11.6173 32.5028 11.1304 32.5028H10.6761V33.9992Z" fill="#A4A9AD"/>
<path d="M20.2064 34.1996C20.2064 35.2862 19.9072 36.1234 19.309 36.7113C18.7108 37.2991 17.8697 37.5931 16.7862 37.5931H14.6797V31.0823H16.9331C17.9782 31.0823 18.7849 31.3495 19.3535 31.8839C19.9219 32.4182 20.2064 33.1903 20.2064 34.1996ZM18.3805 34.262C18.3805 33.6652 18.2625 33.223 18.0265 32.9349C17.7905 32.6469 17.432 32.5029 16.9509 32.5029H16.4389V36.1502H16.8308C17.3653 36.1502 17.7571 35.9951 18.0065 35.6847C18.2558 35.3746 18.3805 34.9004 18.3805 34.262Z" fill="#A4A9AD"/>
<path d="M23.1054 37.5931H21.373V31.0823H25.2208V32.494H23.1054V33.7364H25.056V35.1481H23.1054V37.5931Z" fill="#A4A9AD"/>
<path d="M26.2588 7.28487H33.1151L26.2588 0.428589V7.28487Z" fill="#D1D3D3"/>
</svg>
