<svg width="144" height="145" viewBox="0 0 144 145" fill="none" xmlns="http://www.w3.org/2000/svg">
<path d="M72.4537 136.118C109.189 136.118 138.968 106.032 138.968 68.918C138.968 31.8045 109.189 1.71802 72.4537 1.71802C35.7189 1.71802 5.93945 31.8045 5.93945 68.918C5.93945 106.032 35.7189 136.118 72.4537 136.118Z" fill="#6E43E5"/>
<path d="M20.0453 64.8761L6.39453 76.4486L6.86678 77.0172L20.5176 65.4448L20.0453 64.8761Z" stroke="#191919"/>
<path d="M142.739 61.1648L129.088 72.7373L129.56 73.3059L143.211 61.7334L142.739 61.1648Z" stroke="#191919"/>
<path d="M26.6586 24.7936L13.0078 36.3661L13.4801 36.9347L27.1309 25.3622L26.6586 24.7936Z" stroke="#191919"/>
<path d="M117.551 116.326L113.791 112.601L110.791 115.655L107.874 112.764L104.408 116.293L107.326 119.183L104.326 122.237L108.086 125.962L111.085 122.908L114.006 125.801L117.472 122.273L114.551 119.379L117.551 116.326Z" fill="white" stroke="#191919" stroke-width="2"/>
<path d="M19.1012 54.7039C21.13 54.7039 22.7747 53.0423 22.7747 50.9926C22.7747 48.9429 21.13 47.2812 19.1012 47.2812C17.0724 47.2812 15.4277 48.9429 15.4277 50.9926C15.4277 53.0423 17.0724 54.7039 19.1012 54.7039Z" fill="white" stroke="#191919" stroke-width="2"/>
<path d="M97.5528 90.744C94.3187 95.5568 89.9112 99.4463 84.7544 102.035C79.5983 104.625 73.8685 105.827 68.1185 105.526C62.3683 105.225 56.792 103.43 51.9287 100.316C47.0652 97.2024 43.0789 92.8735 40.3549 87.7481C37.6308 82.6228 36.2611 76.8747 36.378 71.0586C36.4949 65.2425 38.0945 59.5551 41.0223 54.5459C43.95 49.5367 48.107 45.3751 53.0915 42.463C58.0761 39.5508 63.7198 37.9867 69.4774 37.9216L69.8518 71.7454L97.5528 90.744Z" fill="#D5C6FF" stroke="#191919" stroke-width="2"/>
<path d="M76.6504 29.0731C83.5426 29.0731 90.3039 30.9801 96.2109 34.5894C102.117 38.1986 106.945 43.3742 110.178 49.5608C113.411 55.7475 114.925 62.7118 114.559 69.7069C114.193 76.7017 111.961 83.4638 108.101 89.2676L76.6504 67.6585V29.0731Z" fill="white" stroke="#191919" stroke-width="2"/>
</svg>
