<svg width="30" height="30" viewBox="0 0 30 30" fill="none" xmlns="http://www.w3.org/2000/svg">
<path d="M2.78516 4.71436H27.2137V12.4286H2.78516V4.71436Z" fill="#6E43E5"/>
<path fill-rule="evenodd" clip-rule="evenodd" d="M5.54922 5.10005C4.55511 5.10005 3.74922 5.90594 3.74922 6.90005V25.8001C3.74922 26.7942 4.55511 27.6001 5.54922 27.6001H24.4492C25.4433 27.6001 26.2492 26.7942 26.2492 25.8001V6.90005C26.2492 5.90594 25.4433 5.10005 24.4492 5.10005H5.54922ZM1.94922 6.90005C1.94922 4.91182 3.56099 3.30005 5.54922 3.30005H24.4492C26.4374 3.30005 28.0492 4.91182 28.0492 6.90005V25.8001C28.0492 27.7883 26.4374 29.4001 24.4492 29.4001H5.54922C3.56099 29.4001 1.94922 27.7883 1.94922 25.8001V6.90005Z" fill="black"/>
<path fill-rule="evenodd" clip-rule="evenodd" d="M20.4 0.600098C20.8971 0.600098 21.3 1.00304 21.3 1.5001V6.9001C21.3 7.39715 20.8971 7.8001 20.4 7.8001C19.9029 7.8001 19.5 7.39715 19.5 6.9001V1.5001C19.5 1.00304 19.9029 0.600098 20.4 0.600098Z" fill="black"/>
<path fill-rule="evenodd" clip-rule="evenodd" d="M9.59922 0.600098C10.0963 0.600098 10.4992 1.00304 10.4992 1.5001V6.9001C10.4992 7.39715 10.0963 7.8001 9.59922 7.8001C9.10216 7.8001 8.69922 7.39715 8.69922 6.9001V1.5001C8.69922 1.00304 9.10216 0.600098 9.59922 0.600098Z" fill="black"/>
<path fill-rule="evenodd" clip-rule="evenodd" d="M1.94922 12.2999C1.94922 11.8028 2.35216 11.3999 2.84922 11.3999H27.1492C27.6463 11.3999 28.0492 11.8028 28.0492 12.2999C28.0492 12.797 27.6463 13.1999 27.1492 13.1999H2.84922C2.35216 13.1999 1.94922 12.797 1.94922 12.2999Z" fill="black"/>
<path d="M15.7504 24.2223C15.5284 24.3707 15.2674 24.4499 15.0004 24.4499C14.6423 24.4499 14.299 24.3076 14.0458 24.0544C13.7926 23.8013 13.6504 23.4579 13.6504 23.0999C13.6504 22.8328 13.7296 22.5718 13.8779 22.3498C14.0262 22.1278 14.2371 21.9548 14.4838 21.8526C14.7304 21.7504 15.0019 21.7237 15.2638 21.7758C15.5256 21.8279 15.7662 21.9565 15.955 22.1453C16.1438 22.3341 16.2724 22.5746 16.3245 22.8365C16.3765 23.0984 16.3498 23.3698 16.2476 23.6165C16.1454 23.8632 15.9724 24.074 15.7504 24.2223Z" fill="black"/>
<path d="M22.5004 24.2223C22.2784 24.3707 22.0174 24.4499 21.7504 24.4499C21.3923 24.4499 21.049 24.3076 20.7958 24.0544C20.5426 23.8013 20.4004 23.4579 20.4004 23.0999C20.4004 22.8328 20.4796 22.5718 20.6279 22.3498C20.7762 22.1278 20.9871 21.9548 21.2338 21.8526C21.4804 21.7504 21.7519 21.7237 22.0138 21.7758C22.2756 21.8279 22.5162 21.9565 22.705 22.1453C22.8938 22.3341 23.0224 22.5746 23.0745 22.8365C23.1265 23.0984 23.0998 23.3698 22.9976 23.6165C22.8954 23.8632 22.7224 24.074 22.5004 24.2223Z" fill="black"/>
<path d="M22.5004 18.8223C22.2784 18.9707 22.0174 19.0499 21.7504 19.0499C21.3923 19.0499 21.049 18.9076 20.7958 18.6544C20.5426 18.4013 20.4004 18.0579 20.4004 17.6999C20.4004 17.4328 20.4796 17.1718 20.6279 16.9498C20.7762 16.7278 20.9871 16.5548 21.2338 16.4526C21.4804 16.3504 21.7519 16.3237 22.0138 16.3758C22.2756 16.4279 22.5162 16.5565 22.705 16.7453C22.8938 16.9341 23.0224 17.1746 23.0745 17.4365C23.1265 17.6984 23.0998 17.9698 22.9976 18.2165C22.8954 18.4632 22.7224 18.674 22.5004 18.8223Z" fill="black"/>
<path d="M15.7504 18.8223C15.5284 18.9707 15.2674 19.0499 15.0004 19.0499C14.6423 19.0499 14.299 18.9076 14.0458 18.6544C13.7926 18.4013 13.6504 18.0579 13.6504 17.6999C13.6504 17.4328 13.7296 17.1718 13.8779 16.9498C14.0262 16.7278 14.2371 16.5548 14.4838 16.4526C14.7304 16.3504 15.0019 16.3237 15.2638 16.3758C15.5256 16.4279 15.7662 16.5565 15.955 16.7453C16.1438 16.9341 16.2724 17.1746 16.3245 17.4365C16.3765 17.6984 16.3498 17.9698 16.2476 18.2165C16.1454 18.4632 15.9724 18.674 15.7504 18.8223Z" fill="black"/>
<path d="M9.00041 18.8223C8.7784 18.9707 8.5174 19.0499 8.25039 19.0499C7.89235 19.0499 7.54897 18.9076 7.2958 18.6544C7.04262 18.4013 6.90039 18.0579 6.90039 17.6999C6.90039 17.4328 6.97957 17.1718 7.12791 16.9498C7.27625 16.7278 7.48709 16.5548 7.73377 16.4526C7.98045 16.3504 8.25189 16.3237 8.51376 16.3758C8.77564 16.4279 9.01618 16.5565 9.20498 16.7453C9.39379 16.9341 9.52236 17.1746 9.57445 17.4365C9.62654 17.6984 9.59981 17.9698 9.49763 18.2165C9.39545 18.4632 9.22242 18.674 9.00041 18.8223Z" fill="black"/>
<path d="M9.00041 24.2223C8.7784 24.3707 8.5174 24.4499 8.25039 24.4499C7.89235 24.4499 7.54897 24.3076 7.2958 24.0544C7.04262 23.8013 6.90039 23.4579 6.90039 23.0999C6.90039 22.8328 6.97957 22.5718 7.12791 22.3498C7.27625 22.1278 7.48709 21.9548 7.73377 21.8526C7.98045 21.7504 8.25189 21.7237 8.51376 21.7758C8.77564 21.8279 9.01618 21.9565 9.20498 22.1453C9.39379 22.3341 9.52236 22.5746 9.57445 22.8365C9.62654 23.0984 9.59981 23.3698 9.49763 23.6165C9.39545 23.8632 9.22242 24.074 9.00041 24.2223Z" fill="black"/>
</svg>
