<svg width="56" height="57" viewBox="0 0 56 57" fill="none" xmlns="http://www.w3.org/2000/svg">
<path d="M9 18.5182C9 15.2045 11.6863 12.5182 15 12.5182H41C44.3137 12.5182 47 15.2045 47 18.5182V24.5182H9V18.5182Z" fill="#6E43E5"/>
<path fill-rule="evenodd" clip-rule="evenodd" d="M13.2992 13.1184C11.7528 13.1184 10.4992 14.372 10.4992 15.9184V45.3184C10.4992 46.8648 11.7528 48.1184 13.2992 48.1184H42.6992C44.2456 48.1184 45.4992 46.8648 45.4992 45.3184V15.9184C45.4992 14.372 44.2456 13.1184 42.6992 13.1184H13.2992ZM7.69922 15.9184C7.69922 12.8256 10.2064 10.3184 13.2992 10.3184H42.6992C45.792 10.3184 48.2992 12.8256 48.2992 15.9184V45.3184C48.2992 48.4112 45.792 50.9184 42.6992 50.9184H13.2992C10.2064 50.9184 7.69922 48.4112 7.69922 45.3184V15.9184Z" fill="black"/>
<path fill-rule="evenodd" clip-rule="evenodd" d="M36.4 6.11835C37.1732 6.11835 37.8 6.74515 37.8 7.51835V15.9183C37.8 16.6915 37.1732 17.3183 36.4 17.3183C35.6268 17.3183 35 16.6915 35 15.9183V7.51835C35 6.74515 35.6268 6.11835 36.4 6.11835Z" fill="black"/>
<path fill-rule="evenodd" clip-rule="evenodd" d="M19.5992 6.11835C20.3724 6.11835 20.9992 6.74515 20.9992 7.51835V15.9183C20.9992 16.6915 20.3724 17.3183 19.5992 17.3183C18.826 17.3183 18.1992 16.6915 18.1992 15.9183V7.51835C18.1992 6.74515 18.826 6.11835 19.5992 6.11835Z" fill="black"/>
<path fill-rule="evenodd" clip-rule="evenodd" d="M7.69922 24.3182C7.69922 23.545 8.32602 22.9182 9.09922 22.9182H46.8992C47.6724 22.9182 48.2992 23.545 48.2992 24.3182C48.2992 25.0914 47.6724 25.7182 46.8992 25.7182H9.09922C8.32602 25.7182 7.69922 25.0914 7.69922 24.3182Z" fill="black"/>
<path d="M29.1671 42.8642C28.8217 43.0949 28.4157 43.2181 28.0004 43.2181C27.4434 43.2181 26.9093 42.9969 26.5155 42.603C26.1216 42.2092 25.9004 41.6751 25.9004 41.1181C25.9004 40.7028 26.0236 40.2967 26.2543 39.9514C26.4851 39.6061 26.813 39.3369 27.1968 39.178C27.5805 39.019 28.0027 38.9774 28.4101 39.0585C28.8174 39.1395 29.1916 39.3395 29.4853 39.6332C29.779 39.9269 29.979 40.3011 30.06 40.7084C30.1411 41.1158 30.0995 41.538 29.9405 41.9217C29.7816 42.3055 29.5124 42.6334 29.1671 42.8642Z" fill="black"/>
<path d="M39.6671 42.8642C39.3217 43.0949 38.9157 43.2181 38.5004 43.2181C37.9434 43.2181 37.4093 42.9969 37.0155 42.603C36.6216 42.2092 36.4004 41.6751 36.4004 41.1181C36.4004 40.7028 36.5236 40.2967 36.7543 39.9514C36.9851 39.6061 37.313 39.3369 37.6968 39.178C38.0805 39.019 38.5027 38.9774 38.9101 39.0585C39.3174 39.1395 39.6916 39.3395 39.9853 39.6332C40.279 39.9269 40.479 40.3011 40.56 40.7084C40.6411 41.1158 40.5995 41.538 40.4405 41.9217C40.2816 42.3055 40.0124 42.6334 39.6671 42.8642Z" fill="black"/>
<path d="M39.6671 34.4642C39.3217 34.6949 38.9157 34.8181 38.5004 34.8181C37.9434 34.8181 37.4093 34.5969 37.0155 34.203C36.6216 33.8092 36.4004 33.2751 36.4004 32.7181C36.4004 32.3028 36.5236 31.8967 36.7543 31.5514C36.9851 31.2061 37.313 30.9369 37.6968 30.778C38.0805 30.619 38.5027 30.5774 38.9101 30.6585C39.3174 30.7395 39.6916 30.9395 39.9853 31.2332C40.279 31.5269 40.479 31.9011 40.56 32.3084C40.6411 32.7158 40.5995 33.138 40.4405 33.5217C40.2816 33.9055 40.0124 34.2334 39.6671 34.4642Z" fill="black"/>
<path d="M29.1671 34.4642C28.8217 34.6949 28.4157 34.8181 28.0004 34.8181C27.4434 34.8181 26.9093 34.5969 26.5155 34.203C26.1216 33.8092 25.9004 33.2751 25.9004 32.7181C25.9004 32.3028 26.0236 31.8967 26.2543 31.5514C26.4851 31.2061 26.813 30.9369 27.1968 30.778C27.5805 30.619 28.0027 30.5774 28.4101 30.6585C28.8174 30.7395 29.1916 30.9395 29.4853 31.2332C29.779 31.5269 29.979 31.9011 30.06 32.3084C30.1411 32.7158 30.0995 33.138 29.9405 33.5217C29.7816 33.9055 29.5124 34.2334 29.1671 34.4642Z" fill="black"/>
<path d="M18.6671 34.4642C18.3217 34.6949 17.9157 34.8181 17.5004 34.8181C16.9434 34.8181 16.4093 34.5969 16.0155 34.203C15.6216 33.8092 15.4004 33.2751 15.4004 32.7181C15.4004 32.3028 15.5236 31.8967 15.7543 31.5514C15.9851 31.2061 16.313 30.9369 16.6968 30.778C17.0805 30.619 17.5027 30.5774 17.9101 30.6585C18.3174 30.7395 18.6916 30.9395 18.9853 31.2332C19.279 31.5269 19.479 31.9011 19.56 32.3084C19.6411 32.7158 19.5995 33.138 19.4405 33.5217C19.2816 33.9055 19.0124 34.2334 18.6671 34.4642Z" fill="black"/>
<path d="M18.6671 42.8642C18.3217 43.0949 17.9157 43.2181 17.5004 43.2181C16.9434 43.2181 16.4093 42.9969 16.0155 42.603C15.6216 42.2092 15.4004 41.6751 15.4004 41.1181C15.4004 40.7028 15.5236 40.2967 15.7543 39.9514C15.9851 39.6061 16.313 39.3369 16.6968 39.178C17.0805 39.019 17.5027 38.9774 17.9101 39.0585C18.3174 39.1395 18.6916 39.3395 18.9853 39.6332C19.279 39.9269 19.479 40.3011 19.56 40.7084C19.6411 41.1158 19.5995 41.538 19.4405 41.9217C19.2816 42.3055 19.0124 42.6334 18.6671 42.8642Z" fill="black"/>
</svg>
