<svg width="48" height="48" viewBox="0 0 48 48" fill="none" xmlns="http://www.w3.org/2000/svg">
<path fill-rule="evenodd" clip-rule="evenodd" d="M24 2.09815e-06C10.7452 3.25692e-06 -3.25692e-06 10.7452 -2.09815e-06 24C-9.39372e-07 37.2548 10.7452 48 24 48C37.2548 48 48 37.2548 48 24C48 10.7452 37.2548 9.39372e-07 24 2.09815e-06Z" fill="white"/>
<path fill-rule="evenodd" clip-rule="evenodd" d="M16.4004 24.0001C16.4004 24.3315 16.669 24.6001 17.0004 24.6001L31.0004 24.6001C31.3318 24.6001 31.6004 24.3315 31.6004 24.0001C31.6004 23.6687 31.3318 23.4001 31.0004 23.4001L17.0004 23.4001C16.669 23.4001 16.4004 23.6687 16.4004 24.0001Z" fill="black"/>
<path fill-rule="evenodd" clip-rule="evenodd" d="M24.0004 16.3999C23.669 16.3999 23.4004 16.6685 23.4004 16.9999L23.4004 30.9999C23.4004 31.3313 23.669 31.5999 24.0004 31.5999C24.3318 31.5999 24.6004 31.3313 24.6004 30.9999L24.6004 16.9999C24.6004 16.6685 24.3318 16.3999 24.0004 16.3999Z" fill="black"/>
</svg>
