<svg width="36" height="36" viewBox="0 0 36 36" fill="none" xmlns="http://www.w3.org/2000/svg">
<path d="M30.75 7.5H18.75V28.5H30.75C31.1647 28.5 31.5 28.1647 31.5 27.75V8.25C31.5 7.83525 31.1647 7.5 30.75 7.5Z" fill="#FF8A65"/>
<path d="M18 21.75H28.5V23.25H18V21.75ZM18 24.75H28.5V26.25H18V24.75ZM22.5 11.25C20.0152 11.25 18 13.2652 18 15.75C18 18.2347 20.0152 20.25 22.5 20.25C24.9847 20.25 27 18.2347 27 15.75H22.5V11.25Z" fill="#FBE9E7"/>
<path d="M24 9.75V14.25H28.5C28.5 11.7652 26.4848 9.75 24 9.75Z" fill="#FBE9E7"/>
<path d="M20.25 31.5L4.5 28.5V7.5L20.25 4.5V31.5Z" fill="#E64A19"/>
<path d="M12.621 12.75H9V23.25H11.25V19.6327H12.414C13.6553 19.6327 14.646 19.3057 15.3878 18.6547C16.1288 18.003 16.5008 17.1495 16.4993 16.0958C16.5 13.8653 15.2062 12.75 12.621 12.75ZM12.2205 17.8387H11.25V14.5657H12.2205C13.4513 14.5657 14.0662 15.1058 14.0662 16.1843C14.0662 17.2882 13.4513 17.8387 12.2205 17.8387Z" fill="white"/>
</svg>
