<svg width="32" height="32" viewBox="0 0 32 32" fill="none" xmlns="http://www.w3.org/2000/svg">
<g clip-path="url(#clip0_29703_34351)">
<path d="M22.944 0.571533H3.91406V31.4287H28.0862V5.71375L22.944 0.571533Z" fill="#E8E8E8"/>
<path d="M23.9819 15.8313C23.6111 15.1705 22.33 14.9629 21.7422 14.8694C21.279 14.7957 20.806 14.7738 20.3374 14.7742C19.9695 14.7717 19.607 14.7898 19.2491 14.8102C19.1172 14.819 18.9867 14.8304 18.8562 14.8417C18.7225 14.7033 18.5932 14.5603 18.4681 14.4141C17.6722 13.4719 17.0296 12.4035 16.506 11.2932C16.645 10.7568 16.7563 10.1969 16.8234 9.61547C16.9461 8.55425 16.9882 7.34485 16.5906 6.3331C16.4533 5.98391 16.0872 5.55879 15.6648 5.77049C15.1792 6.01393 15.0427 6.70367 15.0031 7.1926C14.9712 7.58779 14.9935 7.984 15.0599 8.37258C15.1274 8.76381 15.2362 9.13529 15.3547 9.50626C15.4652 9.84639 15.5871 10.1839 15.7199 10.5182C15.6356 10.7814 15.5461 11.04 15.4522 11.292C15.2332 11.8663 14.9963 12.412 14.7686 12.9368C14.6485 13.1971 14.5309 13.4518 14.4159 13.7008C14.052 14.5003 13.6569 15.2851 13.2134 16.0437C12.1791 16.4086 11.2509 16.8316 10.4801 17.3286C10.0665 17.5958 9.70127 17.886 9.39706 18.2042C9.10985 18.5046 8.81796 18.8945 8.79241 19.3262C8.77806 19.5698 8.87454 19.8063 9.07413 19.9508C9.34862 20.1559 9.71236 20.1422 10.0308 20.0755C11.074 19.8566 11.8751 18.9599 12.5573 18.2041C13.0272 17.6835 13.562 17.0225 14.1215 16.223C14.1227 16.2212 14.1239 16.2194 14.1252 16.2175C15.0848 15.9201 16.1291 15.6689 17.2374 15.4843C17.7438 15.4003 18.2635 15.3316 18.7937 15.2833C19.1665 15.6325 19.5693 15.9505 20.0088 16.216C20.3511 16.4266 20.7151 16.6044 21.0962 16.737C21.4815 16.8629 21.8692 16.9657 22.2694 17.0307C22.4716 17.0596 22.6783 17.0728 22.8895 17.0648C23.3608 17.047 24.0373 16.8663 24.0817 16.2944C24.0953 16.1193 24.0575 15.9659 23.9819 15.8313ZM12.6982 16.8806C12.4774 17.2226 12.2645 17.5301 12.0639 17.8008C11.5726 18.4692 11.0115 19.2632 10.1992 19.5601C10.0449 19.6164 9.84172 19.6747 9.62758 19.662C9.43685 19.6508 9.24877 19.5667 9.25742 19.3501C9.2617 19.2367 9.31717 19.0921 9.40225 18.95C9.49538 18.7942 9.61069 18.6513 9.73557 18.5199C10.0031 18.2388 10.3414 17.9664 10.7306 17.7141C11.3275 17.3268 12.0402 16.9782 12.8345 16.6672C12.7888 16.7395 12.7432 16.8113 12.6982 16.8806ZM15.4687 8.305C15.4074 7.94736 15.3982 7.58474 15.4358 7.23605C15.4545 7.06171 15.4901 6.89154 15.5415 6.73206C15.585 6.5967 15.6791 6.26634 15.8291 6.2239C16.0764 6.15387 16.1524 6.68484 16.1804 6.83506C16.3398 7.68957 16.1993 8.63984 16.0081 9.47807C15.9777 9.61139 15.9438 9.74258 15.9091 9.87326C15.8498 9.71032 15.7934 9.54687 15.7413 9.3826C15.6294 9.02384 15.527 8.66091 15.4687 8.305ZM17.1666 15.0507C16.2374 15.2013 15.3535 15.3987 14.5226 15.6316C14.6226 15.6036 15.0798 14.7372 15.1818 14.5574C15.6623 13.7111 16.0553 12.8229 16.3377 11.8912C16.8364 12.8775 17.4417 13.821 18.1853 14.6609C18.2538 14.7371 18.3234 14.8124 18.3942 14.8868C17.9776 14.9317 17.5675 14.9864 17.1666 15.0507ZM23.4506 16.2409C23.4166 16.4246 23.0243 16.5296 22.8412 16.5585C22.3002 16.6436 21.7278 16.5755 21.2099 16.4016C20.8547 16.2823 20.512 16.1198 20.1864 15.9244C19.8627 15.7289 19.56 15.4989 19.2769 15.2453C19.6259 15.2243 19.9792 15.2106 20.3342 15.2173C20.6892 15.2209 21.0469 15.2388 21.4003 15.2849C22.0629 15.3588 22.8055 15.5862 23.3271 16.0162C23.4298 16.101 23.4626 16.1759 23.4506 16.2409Z" fill="#FB3449"/>
<path d="M23.7397 3.14269H3.91406V0.571533H22.944L23.7397 3.14269Z" fill="#FB3449"/>
<path d="M13.4812 25.1149C13.4812 25.6605 13.3204 26.0818 12.9986 26.379C12.6768 26.6763 12.2198 26.8249 11.6275 26.8249H11.2567V28.4449H9.9375V23.5618H11.6276C12.2443 23.5618 12.7075 23.6965 13.017 23.9659C13.3265 24.2353 13.4812 24.6183 13.4812 25.1149ZM11.2568 25.7494H11.4973C11.6955 25.7494 11.853 25.6939 11.97 25.5824C12.0869 25.4711 12.1453 25.3174 12.1453 25.1215C12.1453 24.7919 11.9627 24.6272 11.5976 24.6272H11.2568V25.7494Z" fill="#A4A9AD"/>
<path d="M18.4048 25.8998C18.4048 26.7147 18.1804 27.3426 17.7317 27.7835C17.2831 28.2244 16.6523 28.4449 15.8396 28.4449H14.2598V23.5618H15.9498C16.7336 23.5618 17.3387 23.7622 17.7651 24.163C18.1915 24.5637 18.4048 25.1427 18.4048 25.8998ZM17.0354 25.9466C17.0354 25.499 16.9468 25.1673 16.7699 24.9512C16.5929 24.7352 16.324 24.6273 15.9632 24.6273H15.5792V27.3627H15.8731C16.274 27.3627 16.5678 27.2464 16.7549 27.0136C16.9419 26.781 17.0354 26.4253 17.0354 25.9466Z" fill="#A4A9AD"/>
<path d="M20.5786 28.4449H19.2793V23.5618H22.1651V24.6205H20.5786V25.5524H22.0415V26.6112H20.5786V28.4449Z" fill="#A4A9AD"/>
<path d="M22.9434 5.71375H28.0856L22.9434 0.571533V5.71375Z" fill="#D1D3D3"/>
</g>
<defs>
<clipPath id="clip0_29703_34351">
<rect width="30.8571" height="30.8571" fill="white" transform="translate(0.572266 0.571533)"/>
</clipPath>
</defs>
</svg>
