<svg width="48" height="48" viewBox="0 0 48 48" fill="none" xmlns="http://www.w3.org/2000/svg">
<path fill-rule="evenodd" clip-rule="evenodd" d="M24 2.09815e-06C10.7452 3.25692e-06 -3.25692e-06 10.7452 -2.09815e-06 24C-9.39372e-07 37.2548 10.7452 48 24 48C37.2548 48 48 37.2548 48 24C48 10.7452 37.2548 9.39372e-07 24 2.09815e-06Z" fill="white"/>
<path fill-rule="evenodd" clip-rule="evenodd" d="M17.4004 24C17.4004 24.3313 17.669 24.6 18.0004 24.6L30.0004 24.6C30.3318 24.6 30.6004 24.3313 30.6004 24C30.6004 23.6686 30.3318 23.4 30.0004 23.4L18.0004 23.4C17.669 23.4 17.4004 23.6686 17.4004 24Z" fill="black"/>
</svg>
