<svg width="36" height="36" viewBox="0 0 36 36" fill="none" xmlns="http://www.w3.org/2000/svg">
<path d="M30.75 7.5H18.75V28.5H30.75C31.1648 28.5 31.5 28.1647 31.5 27.75V8.25C31.5 7.83525 31.1648 7.5 30.75 7.5Z" fill="#4CAF50"/>
<path d="M24 11.25H29.25V13.5H24V11.25ZM24 18.75H29.25V21H24V18.75ZM24 22.5H29.25V24.75H24V22.5ZM24 15H29.25V17.25H24V15ZM18.75 11.25H22.5V13.5H18.75V11.25ZM18.75 18.75H22.5V21H18.75V18.75ZM18.75 22.5H22.5V24.75H18.75V22.5ZM18.75 15H22.5V17.25H18.75V15Z" fill="white"/>
<path d="M20.25 31.5L4.5 28.5V7.5L20.25 4.5V31.5Z" fill="#2E7D32"/>
<path d="M14.3474 23.25L12.5391 19.8292C12.4701 19.701 12.3996 19.467 12.3261 19.1257H12.2984C12.2639 19.287 12.1829 19.5315 12.0554 19.86L10.2396 23.25H7.42188L10.7684 17.9993L7.70612 12.75H10.5839L12.0846 15.897C12.2016 16.1452 12.3066 16.4408 12.3996 16.7812H12.4296C12.4881 16.578 12.5976 16.2713 12.7589 15.8663L14.4284 12.75H17.0646L13.9154 17.9542L17.1524 23.2485H14.3474V23.25Z" fill="white"/>
</svg>
