<svg width="32" height="32" viewBox="0 0 32 32" fill="none" xmlns="http://www.w3.org/2000/svg">
<path fill-rule="evenodd" clip-rule="evenodd" d="M2.66602 16.0078C2.66602 8.64842 8.65057 2.66675 15.9993 2.66675C23.3481 2.66675 29.3327 8.64842 29.3327 16.0078C29.3327 23.3517 23.3481 29.3334 15.9993 29.3334C8.65057 29.3334 2.66602 23.3517 2.66602 16.0078ZM20.89 17.3572C21.0315 17.2157 21.2117 16.997 21.2503 16.9456C21.4562 16.6754 21.5592 16.341 21.5592 16.0078C21.5592 15.6335 21.4434 15.2861 21.2246 15.0031C21.2066 14.9852 21.1715 14.947 21.1258 14.8972C21.0402 14.804 20.9173 14.6703 20.7999 14.5529C19.7445 13.4209 16.9903 11.5685 15.5489 11.0025C15.3301 10.9137 14.7767 10.7195 14.4807 10.7066C14.1975 10.7066 13.9273 10.7709 13.6699 10.8996C13.3481 11.0797 13.0907 11.3627 12.9492 11.6971C12.8591 11.9287 12.7175 12.6233 12.7175 12.6362C12.5759 13.3952 12.4987 14.6301 12.4987 15.9936C12.4987 17.2942 12.5759 18.4764 12.6918 19.2482C12.6949 19.2514 12.706 19.3066 12.7232 19.3923C12.7755 19.653 12.8844 20.1962 13.0006 20.4188C13.2838 20.9591 13.8372 21.2935 14.4292 21.2935H14.4807C14.8668 21.2807 15.6776 20.9462 15.6776 20.9333C17.0418 20.3673 19.7317 18.605 20.8127 17.4344L20.89 17.3572Z" fill="white"/>
</svg>
