<svg width="48" height="48" viewBox="0 0 48 48" fill="none" xmlns="http://www.w3.org/2000/svg">
<rect width="48" height="48" rx="10" fill="#6E43E5"/>
<path d="M14.354 13C12.4143 13 11.0055 14.0927 11.0055 15.5957C11.0055 17.1039 12.4478 18.2447 14.354 18.2447C16.2938 18.2447 17.7026 17.1309 17.7026 15.5649C17.6132 14.0567 16.2323 13 14.354 13ZM11.559 19.3009C11.2516 19.3009 11 19.5373 11 19.8264V35.0658C11 35.3548 11.2516 35.5913 11.559 35.5913H17.1491C17.4565 35.5913 17.7081 35.3548 17.7081 35.0658V19.8264C17.7081 19.5373 17.4565 19.3009 17.1491 19.3009H11.559ZM19.9441 19.3009C19.6366 19.3009 19.3851 19.5373 19.3851 19.8264V35.0658C19.3851 35.3548 19.6366 35.5913 19.9441 35.5913H24.9751C25.2837 35.5913 25.5341 35.3559 25.5341 35.0658V27.1833V27.052V26.9206C25.5341 25.6751 26.5519 24.6607 27.8488 24.5661C27.9158 24.5556 27.9826 24.5558 28.0497 24.5558C28.1167 24.5558 28.1835 24.5556 28.2505 24.5661C29.5474 24.6607 30.5652 25.6751 30.5652 26.9206V35.0658C30.5652 35.3559 30.8156 35.5913 31.1242 35.5913H36.1552C36.4627 35.5913 36.7142 35.3548 36.7142 35.0658V26.1323C36.7142 22.7324 34.774 19.3009 30.4473 19.3009C28.4796 19.3009 26.9931 20.0157 26.0931 20.6095V19.8264C26.0931 19.5373 25.8416 19.3009 25.5341 19.3009H19.9441Z" fill="#FCFCFC"/>
</svg>
